<?xml version="1.0" encoding="UTF-8" standalone="no"?>
<!-- Created with Inkscape (http://www.inkscape.org/) -->

<svg
   xmlns:dc="http://purl.org/dc/elements/1.1/"
   xmlns:cc="http://creativecommons.org/ns#"
   xmlns:rdf="http://www.w3.org/1999/02/22-rdf-syntax-ns#"
   xmlns:svg="http://www.w3.org/2000/svg"
   xmlns="http://www.w3.org/2000/svg"
   xmlns:sodipodi="http://sodipodi.sourceforge.net/DTD/sodipodi-0.dtd"
   xmlns:inkscape="http://www.inkscape.org/namespaces/inkscape"
   width="80"
   height="40"
   viewBox="0 0 21.166666 10.583334"
   version="1.1"
   id="svg4445"
   inkscape:version="0.92+devel unknown"
   sodipodi:docname="smartbed-icon.svg"
   inkscape:export-filename="/home/xeon/workspace_thesis/thesis-edison/app/static/img/logo.png"
   inkscape:export-xdpi="96"
   inkscape:export-ydpi="96">
  <defs
     id="defs4439" />
  <sodipodi:namedview
     id="base"
     pagecolor="#ffffff"
     bordercolor="#666666"
     borderopacity="1.0"
     inkscape:pageopacity="0.0"
     inkscape:pageshadow="2"
     inkscape:zoom="4"
     inkscape:cx="20.805238"
     inkscape:cy="73.980217"
     inkscape:document-units="mm"
     inkscape:current-layer="layer1"
     inkscape:document-rotation="0"
     showgrid="false"
     units="px"
     inkscape:window-width="1400"
     inkscape:window-height="982"
     inkscape:window-x="0"
     inkscape:window-y="0"
     inkscape:window-maximized="1"
     inkscape:snap-global="false" />
  <metadata
     id="metadata4442">
    <rdf:RDF>
      <cc:Work
         rdf:about="">
        <dc:format>image/svg+xml</dc:format>
        <dc:type
           rdf:resource="http://purl.org/dc/dcmitype/StillImage" />
        <dc:title></dc:title>
      </cc:Work>
    </rdf:RDF>
  </metadata>
  <g
     inkscape:label="Layer 1"
     inkscape:groupmode="layer"
     id="layer1"
     transform="translate(0,-286.41664)">
    <text
       xml:space="preserve"
       style="font-style:normal;font-variant:normal;font-weight:normal;font-stretch:normal;font-size:6.2639842px;line-height:1.25;font-family:'Open Sans';-inkscape-font-specification:'Open Sans';letter-spacing:0px;word-spacing:0px;fill:#000000;fill-opacity:1;stroke:none;stroke-width:0.19574951"
       x="1.3892238"
       y="291.06812"
       id="text4449"><tspan
         sodipodi:role="line"
         id="tspan4447"
         x="1.3892238"
         y="291.06812"
         style="font-style:normal;font-variant:normal;font-weight:600;font-stretch:normal;font-size:6.2639842px;font-family:'Open Sans';-inkscape-font-specification:'Open Sans, Semi-Bold';font-variant-ligatures:normal;font-variant-caps:normal;font-variant-numeric:normal;font-feature-settings:normal;text-align:start;writing-mode:lr-tb;text-anchor:start;fill:#263238;fill-opacity:1;stroke-width:0.19574951">Smart</tspan></text>
    <text
       xml:space="preserve"
       style="font-style:normal;font-variant:normal;font-weight:normal;font-stretch:normal;font-size:6.2639842px;line-height:1.25;font-family:'Open Sans';-inkscape-font-specification:'Open Sans';letter-spacing:0px;word-spacing:0px;fill:#000000;fill-opacity:1;stroke:none;stroke-width:0.19574951"
       x="1.1812401"
       y="296.40311"
       id="text4453"><tspan
         sodipodi:role="line"
         id="tspan4451"
         x="1.1812401"
         y="296.40311"
         style="font-style:normal;font-variant:normal;font-weight:600;font-stretch:normal;font-size:6.2639842px;font-family:'Open Sans';-inkscape-font-specification:'Open Sans, Semi-Bold';font-variant-ligatures:normal;font-variant-caps:normal;font-variant-numeric:normal;font-feature-settings:normal;text-align:start;writing-mode:lr-tb;text-anchor:start;fill:#36a2cd;fill-opacity:1;stroke-width:0.19574951">bed</tspan></text>
    <g
       id="g6263"
       transform="matrix(0.61221381,0,0,0.61221381,19.3339,115.11819)">
      <path
         style="fill:#263238;fill-opacity:1;stroke:none;stroke-width:0.01745746"
         d="m 0.16010262,293.27558 -0.52951214,0.31754 c 0.0360474,-0.0212 0.0583748,-0.066 0.0585661,-0.1299 l 0.52951214,-0.31754 c -1.9128e-4,0.0639 -0.0225188,0.1088 -0.0585661,0.1299 z"
         id="path4377"
         inkscape:connector-curvature="0" />
      <polygon
         transform="matrix(0.01738899,0,0,0.01763139,-8.5914109,287.95337)"
         style="fill:#263238;fill-opacity:1;stroke:none"
         points="507.005,134.044 506.647,294.836 476.196,312.955 476.554,152.162 "
         id="polygon4379" />
      <path
         inkscape:connector-curvature="0"
         id="path4383"
         d="m 0.02467714,289.98105 -3.38927064,-1.9568 c -0.055767,-0.0322 -0.1062989,-0.0352 -0.142781,-0.014 l -0.5295121,0.31507 c 0.036482,-0.0212 0.087014,-0.0182 0.142781,0.014 l 3.38927061,1.95678 c 0.1110287,0.0641 0.20056461,0.21919 0.20021683,0.34655 l 0.52951213,-0.31506 c 3.6517e-4,-0.12734 -0.0891707,-0.28245 -0.20021683,-0.34654 z"
         style="fill:#4a616b;fill-opacity:1;stroke-width:0.01738899" />
      <path
         inkscape:connector-curvature="0"
         id="path4385"
         d="m -0.49901786,290.29519 c 0.11117899,0.0641 0.20083608,0.21925 0.20048783,0.34664 l -0.006233,2.79682 c -3.6567e-4,0.12762 -0.0906148,0.179 -0.20179377,0.11489 l -3.3938755,-1.95737 c -0.1109874,-0.064 -0.2006446,-0.21915 -0.2002789,-0.34677 l 0.00624,-2.79682 c 3.657e-4,-0.12739 0.090614,-0.17875 0.2015849,-0.11475 z"
         style="fill:#34454c;fill-opacity:1;stroke-width:0.01740322" />
      <polygon
         transform="matrix(0.01755885,0,0,0.01738899,-8.6319089,287.99672)"
         id="polygon4391"
         points="223.758,426.302 238.423,417.78 238.423,503.478 223.758,512 "
         style="fill:#263238;fill-opacity:1;stroke:none" />
      <polygon
         transform="matrix(0.01738899,0,0,0.01738899,-8.5914109,287.99672)"
         id="polygon4393"
         points="223.758,426.302 223.758,512 208.999,503.478 208.999,417.781 "
         style="fill:#34454c;fill-opacity:1" />
      <polygon
         transform="matrix(0.01752279,0,0,0.01738899,-8.6549875,287.99672)"
         id="polygon4397"
         points="475.15,366.691 460.486,375.213 460.486,289.516 475.15,280.994 "
         style="fill:#263238;fill-opacity:1;stroke:none" />
      <polygon
         transform="matrix(0.01738899,0,0,0.01738899,-8.5914109,287.99672)"
         id="polygon4399"
         points="460.486,289.516 460.486,375.213 445.726,366.692 445.726,280.994 "
         style="fill:#34454c;fill-opacity:1" />
      <polygon
         transform="matrix(0.01760234,0,0,0.01738899,-8.5987541,287.99672)"
         id="polygon4403"
         points="34.418,388.078 19.753,396.6 19.753,307.686 34.418,299.164 "
         style="fill:#263238;fill-opacity:1;stroke:none" />
      <polygon
         transform="matrix(0.01738899,0,0,0.01738899,-8.5914109,287.99672)"
         id="polygon4405"
         points="19.753,307.686 19.753,396.6 4.994,388.079 4.994,299.164 "
         style="fill:#34454c;fill-opacity:1" />
      <path
         inkscape:connector-curvature="0"
         id="path4417"
         d="m -0.49506238,292.82954 c 6.7817e-4,-7.8e-4 0.001356,-0.002 0.001982,-0.002 5.7383e-4,-7.3e-4 0.001096,-10e-4 0.001635,-0.002 5.7384e-4,-7.9e-4 0.001182,-0.002 0.001722,-0.002 5.0428e-4,-7.5e-4 9.564e-4,-0.002 0.001461,-0.002 5.0428e-4,-7.8e-4 0.001043,-0.002 0.001513,-0.002 4.5211e-4,-7.4e-4 8.3467e-4,-0.002 0.001252,-0.002 4.3472e-4,-8e-4 9.0422e-4,-0.002 0.001304,-0.002 3.8256e-4,-7.6e-4 7.1295e-4,-0.002 0.001061,-0.002 3.8256e-4,-8e-4 7.825e-4,-0.002 0.001113,-0.002 3.304e-4,-7.7e-4 5.7384e-4,-0.002 8.6945e-4,-0.002 3.1301e-4,-8.1e-4 6.434e-4,-0.002 9.0423e-4,-0.002 2.6084e-4,-7.8e-4 4.5212e-4,-0.002 6.9556e-4,-0.002 2.4345e-4,-8.2e-4 4.8689e-4,-0.002 6.9556e-4,-0.002 1.9128e-4,-7.8e-4 3.3039e-4,-0.002 4.8689e-4,-0.002 1.565e-4,-8.1e-4 3.6517e-4,-0.002 4.8689e-4,-0.002 1.2173e-4,-7.8e-4 2.0867e-4,-0.002 2.9562e-4,-0.002 1.0433e-4,-8.2e-4 2.2605e-4,-0.002 2.9561e-4,-0.002 6.956e-5,-8e-4 6.956e-5,-0.002 1.0433e-4,-0.002 3.478e-5,-7.3e-4 8.695e-5,-0.001 8.695e-5,-0.002 v -0.86581 c 0,7.3e-4 -6.956e-5,0.001 -8.695e-5,0.002 0.001078,-0.0267 -0.0160153,-0.0537 -0.0513323,-0.0741 l -3.33289556,-1.9242 c -0.068269,-0.0394 -0.1785676,-0.0394 -0.2463845,0 l -4.1054885,2.38588 c -0.033787,0.0196 -0.050654,0.0454 -0.050619,0.0711 0,-9e-5 0,-1.6e-4 0,-2.6e-4 v 0.86581 c 0,9e-5 0,1.8e-4 0,2.8e-4 0,4.5e-4 3.48e-5,9.1e-4 3.48e-5,0.001 5.391e-4,0.0254 0.015302,0.0508 0.048915,0.0702 l 3.3353474,1.92424 c 0.068269,0.0394 0.1785676,0.0394 0.2463846,0 l 4.10552324,-2.38588 c 0.002104,-0.001 0.004156,-0.002 0.006138,-0.004 7.4773e-4,-4.7e-4 0.001443,-9.7e-4 0.002156,-10e-4 0.0012,-8e-4 0.002434,-0.002 0.003582,-0.002 7.3034e-4,-5.1e-4 0.001374,-0.001 0.002087,-0.002 0.001096,-8.1e-4 0.002208,-0.002 0.003252,-0.002 7.4772e-4,-5.9e-4 0.001443,-10e-4 0.002156,-0.002 9.2162e-4,-7.7e-4 0.001895,-0.002 0.002782,-0.002 7.3034e-4,-6.4e-4 0.001391,-10e-4 0.002087,-0.002 8.1728e-4,-7.6e-4 0.001669,-0.002 0.002469,-0.002 6.7817e-4,-6.6e-4 0.001269,-0.001 0.00193,-0.002 7.4773e-4,-7.9e-4 0.00153,-0.002 0.002243,-0.002 5.9123e-4,-6.4e-4 0.001148,-10e-4 0.001756,-0.002 z"
         style="fill:#e0e0e2;stroke-width:0.01738899" />
      <polygon
         transform="matrix(0.01739817,0,0,0.01740915,-8.5957781,287.99362)"
         style="fill:#4a616b;fill-opacity:1"
         points="4.994,299.17 256.675,153.861 475.15,280.994 223.758,426.302 "
         id="polygon4411" />
      <polygon
         transform="matrix(0.01750747,0,0,0.01747936,-8.6179208,287.9572)"
         style="fill:#263238;fill-opacity:1;stroke:none"
         points="475.15,320.081 223.758,465.389 223.758,426.302 475.15,280.994 "
         id="polygon4413" />
      <path
         inkscape:connector-curvature="0"
         id="path4419"
         d="m -0.47709955,291.91931 v 0.86582 c -6.956e-5,0.0256 -0.0169369,0.0513 -0.0506193,0.0709 v -0.86582 c 0.0336825,-0.0196 0.0505498,-0.0452 0.0506193,-0.0709 z"
         style="fill:#898890;stroke-width:0.01738899" />
      <polygon
         transform="matrix(0.01738899,0,0,0.01738899,-8.5914109,287.99672)"
         style="fill:#34454c;fill-opacity:1"
         points="4.994,299.17 223.758,426.302 223.758,465.389 4.994,338.233 "
         id="polygon4409" />
      <polygon
         transform="matrix(0.01738899,0,0,0.01738899,-8.5914109,287.99672)"
         id="polygon4421"
         points="463.724,229.654 463.724,279.444 227.625,416.649 227.625,366.859 "
         style="fill:#acabb1" />
      <path
         inkscape:connector-curvature="0"
         id="path4423"
         d="m -4.8796093,294.37603 -3.3328781,-1.92425 c -0.034343,-0.0198 -0.051489,-0.0459 -0.051419,-0.0719 v 0.86582 c -6.95e-5,0.026 0.014624,0.052 0.048967,0.0719 l 3.3353474,1.92424 c 0.068269,0.0394 0.1785676,0.0394 0.2463846,0 v -0.86582 c -0.067834,0.0394 -0.1781502,0.0394 -0.246402,2e-5 z"
         style="fill:#c6c5cb;stroke-width:0.01738899" />
      <path
         inkscape:connector-curvature="0"
         id="path4425"
         d="m -0.52850808,291.84744 c 0.068255,0.0394 0.0685853,0.10331 7.9972e-4,0.14271 l -4.10466824,2.38588 c -0.067803,0.0394 -0.1780784,0.0394 -0.2463333,0 l -3.3321667,-1.92425 c -0.068255,-0.0394 -0.068586,-0.10331 -7.997e-4,-0.14271 l 4.1046681,-2.38588 c 0.067803,-0.0394 0.1780784,-0.0394 0.2463333,0 z"
         style="fill:#e0e0e2;stroke-width:0.01738718" />
    </g>
    <g
       id="g4427"
       transform="matrix(0.01738899,0,0,0.01738899,-8.5914109,287.99672)" />
    <g
       id="g4429"
       transform="matrix(0.01738899,0,0,0.01738899,-8.5914109,287.99672)" />
    <g
       id="g4431"
       transform="matrix(0.01738899,0,0,0.01738899,-8.5914109,287.99672)" />
    <g
       id="g4433"
       transform="matrix(0.01738899,0,0,0.01738899,-8.5914109,287.99672)" />
    <g
       id="g4435"
       transform="matrix(0.01738899,0,0,0.01738899,-8.5914109,287.99672)" />
    <g
       id="g4437"
       transform="matrix(0.01738899,0,0,0.01738899,-8.5914109,287.99672)" />
    <g
       id="g4439"
       transform="matrix(0.01738899,0,0,0.01738899,-8.5914109,287.99672)" />
    <g
       id="g4441"
       transform="matrix(0.01738899,0,0,0.01738899,-8.5914109,287.99672)" />
    <g
       id="g4443"
       transform="matrix(0.01738899,0,0,0.01738899,-8.5914109,287.99672)" />
    <g
       id="g4445"
       transform="matrix(0.01738899,0,0,0.01738899,-8.5914109,287.99672)" />
    <g
       id="g4447"
       transform="matrix(0.01738899,0,0,0.01738899,-8.5914109,287.99672)" />
    <g
       id="g4449"
       transform="matrix(0.01738899,0,0,0.01738899,-8.5914109,287.99672)" />
    <g
       id="g4451"
       transform="matrix(0.01738899,0,0,0.01738899,-8.5914109,287.99672)" />
    <g
       id="g4453"
       transform="matrix(0.01738899,0,0,0.01738899,-8.5914109,287.99672)" />
    <g
       id="g4455"
       transform="matrix(0.01738899,0,0,0.01738899,-8.5914109,287.99672)" />
  </g>
</svg>
